<svg width="300" height="200" viewBox="0 0 300 200" xmlns="http://www.w3.org/2000/svg">
  <!-- Breadboard base -->
  <rect x="10" y="20" width="280" height="160" fill="#F5F5DC" stroke="#DDD" stroke-width="2" rx="5"/>
  
  <!-- Power rails -->
  <g fill="#FF0000">
    <rect x="20" y="30" width="260" height="3"/>
    <rect x="20" y="167" width="260" height="3"/>
  </g>
  <g fill="#0000FF">
    <rect x="20" y="35" width="260" height="3"/>
    <rect x="20" y="162" width="260" height="3"/>
  </g>
  
  <!-- Center gap -->
  <rect x="20" y="95" width="260" height="10" fill="#E0E0E0"/>
  
  <!-- Tie points (holes) -->
  <g fill="#666">
    <!-- Top section -->
    <g>
      <circle cx="30" cy="50" r="1.5"/>
      <circle cx="40" cy="50" r="1.5"/>
      <circle cx="50" cy="50" r="1.5"/>
      <circle cx="60" cy="50" r="1.5"/>
      <circle cx="70" cy="50" r="1.5"/>
      <!-- Repeat pattern -->
      <circle cx="30" cy="60" r="1.5"/>
      <circle cx="40" cy="60" r="1.5"/>
      <circle cx="50" cy="60" r="1.5"/>
      <circle cx="60" cy="60" r="1.5"/>
      <circle cx="70" cy="60" r="1.5"/>
      <!-- More rows -->
      <circle cx="30" cy="70" r="1.5"/>
      <circle cx="40" cy="70" r="1.5"/>
      <circle cx="50" cy="70" r="1.5"/>
      <circle cx="60" cy="70" r="1.5"/>
      <circle cx="70" cy="70" r="1.5"/>
      <circle cx="30" cy="80" r="1.5"/>
      <circle cx="40" cy="80" r="1.5"/>
      <circle cx="50" cy="80" r="1.5"/>
      <circle cx="60" cy="80" r="1.5"/>
      <circle cx="70" cy="80" r="1.5"/>
    </g>
    
    <!-- Bottom section -->
    <g>
      <circle cx="30" cy="115" r="1.5"/>
      <circle cx="40" cy="115" r="1.5"/>
      <circle cx="50" cy="115" r="1.5"/>
      <circle cx="60" cy="115" r="1.5"/>
      <circle cx="70" cy="115" r="1.5"/>
      <circle cx="30" cy="125" r="1.5"/>
      <circle cx="40" cy="125" r="1.5"/>
      <circle cx="50" cy="125" r="1.5"/>
      <circle cx="60" cy="125" r="1.5"/>
      <circle cx="70" cy="125" r="1.5"/>
      <circle cx="30" cy="135" r="1.5"/>
      <circle cx="40" cy="135" r="1.5"/>
      <circle cx="50" cy="135" r="1.5"/>
      <circle cx="60" cy="135" r="1.5"/>
      <circle cx="70" cy="135" r="1.5"/>
      <circle cx="30" cy="145" r="1.5"/>
      <circle cx="40" cy="145" r="1.5"/>
      <circle cx="50" cy="145" r="1.5"/>
      <circle cx="60" cy="145" r="1.5"/>
      <circle cx="70" cy="145" r="1.5"/>
    </g>
  </g>
  
  <!-- Column numbers -->
  <g font-family="Arial" font-size="8" fill="#666" text-anchor="middle">
    <text x="30" y="15">1</text>
    <text x="40" y="15">5</text>
    <text x="50" y="15">10</text>
    <text x="60" y="15">15</text>
    <text x="70" y="15">20</text>
  </g>
  
  <!-- Row letters -->
  <g font-family="Arial" font-size="8" fill="#666" text-anchor="middle">
    <text x="15" y="52">a</text>
    <text x="15" y="62">b</text>
    <text x="15" y="72">c</text>
    <text x="15" y="82">d</text>
    <text x="15" y="87">e</text>
    <text x="15" y="118">f</text>
    <text x="15" y="128">g</text>
    <text x="15" y="138">h</text>
    <text x="15" y="148">i</text>
    <text x="15" y="158">j</text>
  </g>
  
  <!-- Power rail labels -->
  <text x="285" y="32" font-family="Arial" font-size="8" fill="#FF0000">+</text>
  <text x="285" y="37" font-family="Arial" font-size="8" fill="#0000FF">-</text>
</svg>
